<svg xmlns="http://www.w3.org/2000/svg" width="60" height="60" viewBox="0" version="1.1"><title>Github</title><description>Created with Sketch (http://www.bohemiancoding.com/sketch)</description><g id="Page-1" stroke="none" stroke-width="1" fill="none" fill-rule="evenodd"><g id="Github"><g id="Github-"><path d="M0.34 30C0.34 13.4 13.6 0 29.9 0 46.21 0 59.4 13.4 59.4 30 59.44 46.6 46.2 60 29.9 60 13.57 60 0.3 46.6 0.3 30ZM0.34 30" id="Github" fill="#333333"/><path d="M18.22 31.9C19.61 34.5 22.3 36 26.8 36.4 26.16 36.9 25.4 37.9 25.3 38.9 24.46 39.5 22.8 39.6 21.6 39.2 19.79 38.7 19.1 35.2 16.5 35.7 15.88 35.8 16 36.2 16.5 36.5 17.3 37 18.1 37.7 18.7 39 19.1 40.1 20.1 42 23.1 42 24.25 42 25.1 41.9 25.1 41.9 25.08 41.9 25.1 44.6 25.1 45.7 25.11 46.9 23.5 47.2 23.5 47.8 23.45 48.1 24 48.1 24.4 48.1 25.31 48.1 27.1 47.4 27.1 46.1 27.12 45.1 27.1 41.7 27.1 41.1 27.14 39.8 27.8 39.4 27.8 39.4 27.84 39.4 27.9 46.3 27.7 47.2 27.37 48.3 26.8 48.2 26.8 48.7 26.84 49.4 29 48.9 29.7 47.3 30.3 46 30.1 39.2 30.1 39.2L30.65 39.2C30.65 39.2 30.7 42.3 30.7 43.7 30.64 45.2 30.5 47.1 31.4 48 32 48.5 33.9 49.6 33.9 48.6 33.87 48.1 32.8 47.6 32.8 46.2L32.84 39.5C33.66 39.5 33.5 41.7 33.5 41.7L33.6 45.8C33.6 45.8 33.4 47.3 35.2 47.9 35.85 48.1 37.2 48.2 37.3 47.8 37.34 47.4 35.6 46.9 35.6 45.7 35.62 45 35.7 44.6 35.7 41.5 35.66 38.5 35.2 37.3 33.8 36.4 38.25 36 41 34.9 42.3 31.9 42.44 31.9 42.9 30.6 42.8 30.6 43.12 29.5 43.3 28.2 43.3 26.6 43.31 22.4 41.3 20.9 40.9 20.2 41.47 17 40.8 15.6 40.5 15.1 39.35 14.7 36.5 16.1 35 17.1 32.44 16.4 27.1 16.5 25.1 17.3 21.4 14.7 19.4 15.1 19.4 15.1 19.45 15.1 18.2 17.4 19.1 20.7 17.9 22.2 17 23.3 17 26.2 16.99 27.8 17.2 29.3 17.6 30.6 17.56 30.6 18.2 31.9 18.2 31.9ZM18.22 31.9" id="Path" fill="#FFFFFF"/><path d="M59.44 30C59.44 46.6 46.2 60 29.9 60 23.83 60 18.2 58.2 13.5 55L47.38 5.8C54.69 11.3 59.4 20.1 59.4 30ZM59.44 30" id="reflec" fill-opacity="0.08" fill="#000000"/></g></g></g></svg>