<svg xmlns="http://www.w3.org/2000/svg" width="60" height="60" viewBox="0" version="1.1"><title>Github</title><description>Created with Sketch (http://www.bohemiancoding.com/sketch)</description><g id="Page-1" stroke="none" stroke-width="1" fill="none" fill-rule="evenodd"><g id="Github"><g id="Github-"><path d="M0.337 30C0.337 13.431 13.567 0 29.888 0 46.208 0 59.439 13.431 59.439 30 59.439 46.569 46.208 60 29.888 60 13.567 60 0.337 46.569 0.337 30ZM0.337 30" id="Github" fill="#333333"/><path d="M18.218 31.936C19.607 34.451 22.285 36.016 26.801 36.449 26.156 36.937 25.382 37.863 25.275 38.934 24.464 39.457 22.835 39.63 21.567 39.231 19.792 38.672 19.112 35.164 16.453 35.664 15.877 35.772 15.992 36.151 16.49 36.472 17.3 36.996 18.063 37.65 18.651 39.044 19.103 40.114 20.053 42.026 23.057 42.026 24.249 42.026 25.084 41.883 25.084 41.883 25.084 41.883 25.107 44.614 25.107 45.676 25.107 46.9 23.451 47.246 23.451 47.835 23.451 48.068 23.999 48.09 24.44 48.09 25.31 48.09 27.122 47.365 27.122 46.092 27.122 45.081 27.138 41.681 27.138 41.086 27.138 39.786 27.837 39.374 27.837 39.374 27.837 39.374 27.924 46.315 27.67 47.246 27.373 48.34 26.836 48.185 26.836 48.673 26.836 49.399 29.017 48.851 29.74 47.257 30.298 46.017 30.054 39.207 30.054 39.207L30.65 39.195C30.65 39.195 30.684 42.312 30.664 43.737 30.643 45.213 30.543 47.079 31.421 47.959 31.998 48.538 33.869 49.553 33.869 48.625 33.869 48.086 32.844 47.642 32.844 46.183L32.844 39.469C33.662 39.469 33.539 41.677 33.539 41.677L33.599 45.779C33.599 45.779 33.419 47.273 35.219 47.899 35.854 48.121 37.214 48.181 37.278 47.809 37.342 47.436 35.641 46.881 35.625 45.724 35.616 45.018 35.657 44.606 35.657 41.538 35.657 38.47 35.244 37.336 33.805 36.432 38.246 35.977 40.994 34.881 42.334 31.945 42.438 31.948 42.879 30.574 42.822 30.574 43.122 29.466 43.284 28.155 43.317 26.603 43.309 22.393 41.29 20.904 40.901 20.205 41.474 17.018 40.806 15.568 40.496 15.07 39.352 14.664 36.515 16.115 34.965 17.137 32.438 16.4 27.098 16.471 25.096 17.327 21.401 14.688 19.446 15.092 19.446 15.092 19.446 15.092 18.182 17.351 19.112 20.657 17.896 22.203 16.99 23.297 16.99 26.196 16.99 27.83 17.183 29.292 17.618 30.569 17.564 30.568 18.201 31.936 18.218 31.936ZM18.218 31.936" id="Path" fill="#FFFFFF"/><path d="M59.439 30C59.439 46.569 46.208 60 29.888 60 23.835 60 18.207 58.153 13.522 54.983L47.382 5.819C54.694 11.281 59.439 20.078 59.439 30ZM59.439 30" id="reflec" fill-opacity="0.08" fill="#000000"/></g></g></g></svg>