<svg xmlns="http://www.w3.org/2000/svg" width="60" height="60" viewBox="0" version="1.1"><title>Google +</title><description>Created with Sketch (http://www.bohemiancoding.com/sketch)</description><g id="Page-1" stroke="none" stroke-width="1" fill="none" fill-rule="evenodd"><g id="Google-+"><path d="M0.112 29.508C0.112 13.211 13.343 0 29.663 0 45.984 0 59.214 13.211 59.214 29.508 59.214 45.805 45.984 59.016 29.663 59.016 13.343 59.016 0.112 45.805 0.112 29.508ZM0.112 29.508" fill="#D34836"/><path d="M58.296 22.716L51.308 22.716 51.308 30.469 48.014 30.469 48.014 22.716 40.328 22.716 40.328 19.489 48.014 19.489 48.014 11.803 51.308 11.803 51.308 19.489 57.175 19.489C57.609 20.535 57.984 21.612 58.296 22.716ZM58.296 22.716" id="Shape" fill="#FFFFFF"/><path d="M8.23 48.605C9.057 47.218 10.338 45.853 12.236 44.732 16.519 42.112 22.287 41.766 25.406 41.568 24.44 40.332 23.326 39.022 23.326 36.872 23.326 35.71 23.673 35.018 24.02 34.202 23.252 34.276 22.509 34.35 21.816 34.35 14.513 34.35 10.379 28.912 10.379 23.548 10.379 20.383 11.84 16.868 14.786 14.325 18.722 11.094 23.401 10.543 27.114 10.543L41.299 10.543 36.892 13.017 32.634 13.017C34.219 14.325 37.511 17.076 37.511 22.312 37.511 27.404 34.615 29.802 31.743 32.076 30.827 32.966 29.812 33.93 29.812 35.438 29.812 36.946 30.827 37.786 31.595 38.404L34.07 40.332C37.115 42.854 39.863 45.202 39.863 49.948 39.863 53.078 38.4 56.22 35.55 58.631 34.017 58.88 32.444 59.012 30.84 59.016 33.734 57.749 35.234 55.429 35.234 52.643 35.234 49.132 32.981 47.279 27.733 43.546 27.188 43.496 26.842 43.496 26.148 43.496 25.53 43.496 21.816 43.62 18.92 44.584 17.41 45.128 13.003 46.784 13.003 51.679 13.003 52.211 13.06 52.726 13.171 53.223 5.912 47.846 9.057 48.605 8.23 48.605ZM31.446 25.476C31.446 20.507 28.5 12.812 22.782 12.812 20.999 12.812 19.068 13.707 17.954 15.084 16.791 16.527 16.444 18.381 16.444 20.161 16.444 24.784 19.118 32.422 25.059 32.422 26.767 32.422 28.624 31.581 29.738 30.494 31.322 28.912 31.446 26.712 31.446 25.476ZM31.446 25.476" id="Path" fill="#FFFFFF"/><path d="M59.279 29.686C59.279 45.983 46.049 59.194 29.729 59.194 23.676 59.194 18.048 57.377 13.362 54.259L47.223 5.902C54.535 11.273 59.279 19.926 59.279 29.686ZM59.279 29.686" id="reflec" fill-opacity="0.08" fill="#000000"/></g></g></svg>