<svg xmlns="http://www.w3.org/2000/svg" width="60" height="60" viewBox="0" version="1.1"><title>
    LinkedIN
  </title><description>
    Created with Sketch (http://www.bohemiancoding.com/sketch)
  </description><g id="Page-1" stroke="none" stroke-width="1" fill="none" fill-rule="evenodd"><g id="LinkedIN"><path d="M0.45 30C0.45 13.43 13.68 0 30 0 46.32 0 59.55 13.43 59.55 30 59.55 46.57 46.32 60 30 60 13.68 60 0.45 46.57 0.45 30ZM0.45 30" fill="#007BB6"/><path d="M22.47 23.71L15.78 23.71 15.78 44.14 22.47 44.14 22.47 23.71ZM22.47 23.71" id="Path" fill="#FFFFFF"/><path d="M22.91 17.39C22.87 15.39 21.46 13.86 19.17 13.86 16.88 13.86 15.39 15.39 15.39 17.39 15.39 19.35 16.84 20.92 19.08 20.92L19.12 20.92C21.46 20.92 22.91 19.35 22.91 17.39ZM22.91 17.39" id="Path" fill="#FFFFFF"/><path d="M46.58 32.42C46.58 26.15 43.29 23.23 38.89 23.23 35.33 23.23 33.75 25.21 32.86 26.6L32.86 23.71 26.17 23.71C26.26 25.63 26.17 44.14 26.17 44.14L32.86 44.14 32.86 32.73C32.86 32.12 32.9 31.51 33.08 31.07 33.56 29.85 34.66 28.59 36.51 28.59 38.93 28.59 39.9 30.46 39.9 33.21L39.9 44.14 46.58 44.14 46.58 32.42ZM46.58 32.42" id="Path" fill="#FFFFFF"/><path d="M59.55 30C59.55 46.57 46.32 60 30 60 23.95 60 18.32 58.15 13.63 54.98L47.49 5.82C54.81 11.28 59.55 20.08 59.55 30ZM59.55 30" id="reflec" fill-opacity="0.08" fill="#000000"/></g></g></svg>