<svg xmlns="http://www.w3.org/2000/svg" width="60" height="60" viewBox="0" version="1.1"><title>LinkedIN</title><description>Created with Sketch (http://www.bohemiancoding.com/sketch)</description><g id="Page-1" stroke="none" stroke-width="1" fill="none" fill-rule="evenodd"><g id="LinkedIN"><path d="M0.449 30C0.449 13.431 13.68 0 30 0 46.32 0 59.551 13.431 59.551 30 59.551 46.569 46.32 60 30 60 13.68 60 0.449 46.569 0.449 30ZM0.449 30" fill="#007BB6"/><path d="M22.468 23.71L15.781 23.71 15.781 44.137 22.468 44.137 22.468 23.71ZM22.468 23.71" id="Path" fill="#FFFFFF"/><path d="M22.908 17.391C22.865 15.388 21.456 13.863 19.169 13.863 16.881 13.863 15.385 15.388 15.385 17.391 15.385 19.352 16.837 20.922 19.082 20.922L19.125 20.922C21.456 20.922 22.908 19.352 22.908 17.391ZM22.908 17.391" id="Path" fill="#FFFFFF"/><path d="M46.585 32.425C46.585 26.15 43.286 23.23 38.885 23.23 35.335 23.23 33.745 25.213 32.858 26.604L32.858 23.71 26.17 23.71C26.258 25.627 26.17 44.137 26.17 44.137L32.858 44.137 32.858 32.729C32.858 32.119 32.901 31.51 33.078 31.073 33.561 29.853 34.661 28.59 36.509 28.59 38.93 28.59 39.897 30.463 39.897 33.208L39.897 44.137 46.584 44.137 46.585 32.425ZM46.585 32.425" id="Path" fill="#FFFFFF"/><path d="M59.551 30C59.551 46.569 46.32 60 30 60 23.947 60 18.319 58.153 13.634 54.983L47.494 5.819C54.806 11.281 59.551 20.078 59.551 30ZM59.551 30" id="reflec" fill-opacity="0.08" fill="#000000"/></g></g></svg>